<?xml version="1.0" encoding="UTF-8"?>
<svg version="1.1" xmlns="http://www.w3.org/2000/svg" width="3000" height="1250">
<path d="M0 0 C3.74696302 0.0031485 7.4931247 -0.02034926 11.23999023 -0.0456543 C32.6246985 -0.10264998 53.61016181 1.80728627 74.58959961 6.00317383 C75.87576172 6.25808594 77.16192383 6.51299805 78.48706055 6.77563477 C139.13181418 19.07685272 194.3368014 47.20742296 241.49829102 86.88256836 C243.70933017 88.72877032 245.95562152 90.52859058 248.21459961 92.31567383 C247.6341694 95.7274482 246.55934047 97.32326644 244.08178711 99.70629883 C243.43983398 100.33407227 242.79788086 100.9618457 242.13647461 101.60864258 C241.46100586 102.25446289 240.78553711 102.9002832 240.08959961 103.56567383 C238.77193386 104.83907018 237.45682422 106.11511684 236.14428711 107.39379883 C235.5588916 107.95486328 234.97349609 108.51592773 234.37036133 109.09399414 C232.47495756 111.04735476 230.69845972 113.04681284 228.92016602 115.10571289 C225.43958573 119.11094308 221.77177318 122.8715389 217.99584961 126.59692383 C217.00349304 127.58360046 217.00349304 127.58360046 215.99108887 128.59020996 C213.19881817 131.36633941 210.40054545 134.1363892 207.6027832 136.90698242 C205.54419063 138.94734463 203.48872058 140.99081714 201.43334961 143.03442383 C200.81335083 143.64612427 200.19335205 144.25782471 199.55456543 144.88806152 C195.77412479 148.64760308 192.2006455 152.53299221 188.72285461 156.57446289 C186.85547556 158.73026601 184.90857403 160.78909445 182.90209961 162.81567383 C181.91790039 163.82114258 181.91790039 163.82114258 180.91381836 164.84692383 C179.21459961 166.31567383 179.21459961 166.31567383 177.21459961 166.31567383 C175.51524886 164.68234515 173.85364426 163.00951213 172.21459961 161.31567383 C138.52639827 130.34247555 92.09591525 110.46058993 47.21459961 103.31567383 C46.21106445 103.15486328 45.2075293 102.99405273 44.17358398 102.82836914 C-22.48142256 92.64321534 -91.88133295 109.13161591 -146.47290039 148.75317383 C-153.51288004 153.96253866 -160.21673986 159.52736602 -166.78540039 165.31567383 C-167.2863623 165.75347168 -167.78732422 166.19126953 -168.3034668 166.64233398 C-216.76401253 209.17729754 -246.24747373 271.35300469 -251.78540039 335.31567383 C-251.93360433 338.54784253 -251.97163555 341.77571181 -251.98852539 345.01098633 C-251.99911484 346.36371643 -251.99911484 346.36371643 -252.00991821 347.74377441 C-252.28626118 375.17402311 -252.28626118 375.17402311 -248.78540039 402.31567383 C-248.58672363 403.32581543 -248.38804687 404.33595703 -248.18334961 405.37670898 C-234.49765306 473.39513341 -195.84568101 532.72647246 -138.22290039 571.56567383 C-82.19822082 608.48081772 -12.05402027 623.4462213 53.97241211 609.99145508 C60.4291555 608.59294015 66.82739048 607.00128984 73.21459961 605.31567383 C74.10195801 605.08509277 74.98931641 604.85451172 75.90356445 604.61694336 C111.32031085 595.24732573 144.93759385 577.53754006 171.78491211 552.55786133 C173.80022597 550.69807008 175.84757316 548.93134002 177.96459961 547.19067383 C210.88965027 519.24358352 227.17306839 472.54468502 232.26831055 430.98852539 C232.4055806 429.87926193 232.4055806 429.87926193 232.54562378 428.74758911 C232.76954022 426.93706478 232.99219768 425.12638482 233.21459961 423.31567383 C231.56553069 423.30932592 231.56553069 423.30932592 229.88314724 423.30284977 C203.08976575 423.19949626 176.29641038 423.09072785 149.50307369 422.97633457 C136.54584053 422.92113847 123.58860462 422.86767944 110.63134766 422.81835938 C99.33323059 422.77535015 88.03513268 422.72903108 76.73704535 422.67879528 C70.75899312 422.65232853 64.78094436 422.62747999 58.8028698 422.60659981 C53.16653253 422.58686083 47.53023127 422.5626684 41.89392662 422.53518295 C39.83454805 422.52590305 37.77516163 422.51819627 35.71577072 422.51225471 C32.88334615 422.50383704 30.05100543 422.48952173 27.21861267 422.47389221 C26.42186046 422.47291411 25.62510825 422.471936 24.80421203 422.47092825 C17.21740208 422.41783523 9.83544363 421.8237301 2.21459961 421.31567383 C2.21459961 389.30567383 2.21459961 357.29567383 2.21459961 324.31567383 C44.11023391 324.29364828 86.00586277 324.27517649 127.9015012 324.2646085 C132.84221175 324.26335772 137.78292228 324.2620634 142.72363281 324.26074219 C144.19910774 324.26034872 144.19910774 324.26034872 145.70439024 324.25994731 C161.65340408 324.25559024 177.60241433 324.24770249 193.55142605 324.23852103 C209.90384009 324.22918552 226.25625226 324.22361844 242.60866886 324.22158533 C252.70747806 324.22020989 262.80627711 324.21585816 272.90508319 324.20775736 C279.82037644 324.20249117 286.73566442 324.20086924 293.65095954 324.20217245 C297.64694119 324.20281603 301.64290507 324.20179609 305.63888359 324.19646835 C309.29106341 324.19163426 312.94321336 324.19133524 316.5953945 324.19477493 C318.55511931 324.19540356 320.51484372 324.19106191 322.47456354 324.18659252 C323.62259173 324.18858357 324.77061993 324.19057462 325.95343685 324.192626 C326.95248104 324.19224628 327.95152523 324.19186656 328.98084348 324.19147533 C331.21459961 324.31567383 331.21459961 324.31567383 332.21459961 325.31567383 C332.886165 329.35341678 333.26941648 333.43500745 333.71459961 337.50317383 C333.91533081 339.33102417 333.91533081 339.33102417 334.12011719 341.19580078 C336.39737637 362.77138981 336.79466459 384.35263565 335.46459961 406.00317383 C335.40024719 407.05908218 335.40024719 407.05908218 335.33459473 408.13632202 C331.33834139 471.91656096 312.63897295 537.70746797 272.21459961 588.31567383 C271.58553711 589.12391602 270.95647461 589.9321582 270.30834961 590.76489258 C268.30877304 593.30943572 266.2716288 595.81733164 264.21459961 598.31567383 C263.7937207 598.8282373 263.3728418 599.34080078 262.93920898 599.86889648 C252.71071608 612.25942061 241.73508577 624.15202328 229.04589844 634.06689453 C226.207245 636.32151528 223.45796738 638.65919732 220.70288086 641.01489258 C214.47851934 646.25275106 207.8864699 650.84855639 201.08959961 655.31567383 C200.5019986 655.70441681 199.91439758 656.09315979 199.30899048 656.49368286 C190.25400239 662.47663684 181.10178821 668.16650864 171.45629883 673.15600586 C169.90116463 673.96050242 168.3510142 674.77467779 166.80493164 675.59643555 C88.42139401 717.22205188 -4.66779436 725.64222467 -106.98461914 698.15161133 C-127.35554116 691.70050881 -146.89369634 683.27781529 -165.78540039 673.31567383 C-166.91461914 672.72713623 -166.91461914 672.72713623 -168.06665039 672.12670898 C-206.7229243 651.88079929 -245.64495228 622.56440191 -272.70336914 587.95239258 C-274.6006966 585.54958575 -276.58179723 583.2468647 -278.60327148 580.94848633 C-292.8383826 564.62758888 -303.99173469 546.0124415 -314.78540039 527.31567383 C-315.40753418 526.24373779 -315.40753418 526.24373779 -316.04223633 525.15014648 C-318.4557511 520.95106761 -320.68009186 516.67565399 -322.78540039 512.31567383 C-323.37901367 511.09098389 -323.37901367 511.09098389 -323.98461914 509.84155273 C-340.49440807 475.25404072 -350.73017504 438.24941458 -355.78540039 400.31567383 C-355.96345215 399.02677246 -356.14150391 397.73787109 -356.32495117 396.40991211 C-357.97834838 383.68086046 -358.18441036 371.01381748 -358.16040039 358.19067383 C-358.15985657 357.09373199 -358.15931274 355.99679016 -358.15875244 354.86660767 C-358.11675037 336.36738357 -357.05446018 318.54877451 -353.78540039 300.31567383 C-353.56577637 299.07640137 -353.34615234 297.83712891 -353.11987305 296.56030273 C-350.07238527 279.83039283 -345.95678087 263.51018321 -340.78540039 247.31567383 C-340.52710449 246.4890625 -340.26880859 245.66245117 -340.00268555 244.81079102 C-327.65990709 205.6975804 -306.89785079 167.92783553 -280.78540039 136.31567383 C-280.35743164 135.79440918 -279.92946289 135.27314453 -279.48852539 134.73608398 C-265.0798251 117.23758697 -249.49020545 99.38378858 -231.53540039 85.45239258 C-229.44467514 83.82792281 -227.42381765 82.17598187 -225.41040039 80.46020508 C-208.97861089 66.56069713 -190.74697717 54.90919173 -171.93237305 44.5065918 C-169.91810552 43.38928488 -167.91986839 42.24731532 -165.92211914 41.10083008 C-132.79369046 22.46214809 -95.22944074 11.09896126 -57.97290039 4.56567383 C-56.84207031 4.3669165 -55.71124023 4.16815918 -54.54614258 3.96337891 C-50.96473193 3.36433739 -47.38078709 2.82426916 -43.78540039 2.31567383 C-43.12164398 2.22138092 -42.45788757 2.12708801 -41.77401733 2.02993774 C-27.87541578 0.12801534 -14.01114707 -0.02451247 0 0 Z " fill="#3174F1" transform="translate(470.785400390625,170.684326171875)"/>
<path d="M0 0 C0.05534912 -0.99443115 0.11069824 -1.9888623 0.16772461 -3.01342773 C0.37362652 -6.69062576 0.58565079 -10.36744928 0.79956055 -14.04418945 C0.89141146 -15.63784342 0.98158481 -17.23159497 1.07006836 -18.82543945 C1.19728394 -21.11176635 1.33045965 -23.39767843 1.46484375 -25.68359375 C1.50343002 -26.40026718 1.5420163 -27.11694061 1.58177185 -27.85533142 C1.88612829 -32.88612829 1.88612829 -32.88612829 3 -34 C5.95246354 -34.09526806 8.88148421 -34.12552452 11.83422852 -34.11352539 C13.22433136 -34.11374443 13.22433136 -34.11374443 14.64251709 -34.1139679 C17.72133687 -34.11326838 20.80009697 -34.10547421 23.87890625 -34.09765625 C26.00740018 -34.09579221 28.13589453 -34.09436824 30.26438904 -34.09336853 C35.8786232 -34.08954228 41.49283168 -34.07971108 47.10705566 -34.06866455 C52.83113253 -34.05845273 58.55521353 -34.0538714 64.27929688 -34.04882812 C75.51954256 -34.03808891 86.75976915 -34.0210112 98 -34 C98.06876194 22.51960404 98.12157736 79.03920389 98.15319599 135.55884158 C98.15694782 142.24113209 98.16082732 148.92342251 98.16479492 155.60571289 C98.1651872 156.2706386 98.16557948 156.93556431 98.16598364 157.62063928 C98.17874028 179.12621634 98.20125359 200.63176956 98.22889166 222.13733222 C98.25807671 244.88823926 98.27600617 267.63913152 98.28226548 290.39005667 C98.28636877 304.00198443 98.29929871 317.61384372 98.3237494 331.22575039 C98.33968515 340.57729518 98.34438273 349.92880489 98.34050413 359.28036224 C98.33859472 364.6646397 98.34138901 370.04879804 98.35761642 375.43305397 C98.43065469 400.92633628 98.44359287 426.13338643 92.3125 451.0625 C92.0554126 452.12863525 91.7983252 453.19477051 91.53344727 454.29321289 C81.65718482 494.01812605 63.15359868 528.42986805 35 558 C34.38640625 558.65484375 33.7728125 559.3096875 33.140625 559.984375 C15.53173605 578.26407876 -9.46941518 595.21382099 -34 602 C-34.96373535 602.2676416 -35.9274707 602.5352832 -36.92041016 602.81103516 C-59.97076925 609.09500618 -83.55507704 614.03922987 -107.52734375 614.23828125 C-108.50595871 614.2480751 -109.48457367 614.25786896 -110.49284363 614.26795959 C-171.49040167 614.75297984 -225.6525596 600.37350564 -270.52441406 557.41259766 C-271.89127014 556.10408851 -273.2693898 554.80737271 -274.6484375 553.51171875 C-281.51664975 546.89266878 -287.29299703 539.61279356 -293 532 C-293.4228125 531.44328613 -293.845625 530.88657227 -294.28125 530.31298828 C-301.77475257 520.40458742 -307.97511725 509.85023107 -314 499 C-314.41652832 498.25347168 -314.83305664 497.50694336 -315.26220703 496.73779297 C-316.41415924 494.66390724 -317.55417466 492.58411372 -318.6875 490.5 C-319.02668457 489.88326416 -319.36586914 489.26652832 -319.71533203 488.63110352 C-321.19685376 485.85766658 -322 484.19802157 -322 481 C-321.08903564 480.61183105 -321.08903564 480.61183105 -320.15966797 480.21582031 C-303.39040524 473.06363613 -286.65796068 465.82794419 -269.9375 458.5625 C-268.93386414 458.12675659 -267.93022827 457.69101318 -266.8961792 457.24206543 C-263.98111757 455.9762108 -261.06660521 454.70910184 -258.15234375 453.44140625 C-257.24158081 453.04569427 -256.33081787 452.6499823 -255.39245605 452.24227905 C-249.861856 449.83277746 -244.36849082 447.36521041 -238.92797852 444.75756836 C-237 444 -237 444 -234 444 C-233.41734375 445.17433594 -232.8346875 446.34867188 -232.234375 447.55859375 C-223.59674229 464.65144953 -213.37634841 479.30891398 -200 493 C-199.11828125 493.97453125 -199.11828125 493.97453125 -198.21875 494.96875 C-181.04252697 513.54711369 -155.76422364 524.01771263 -130.75 525.03515625 C-97.57121663 525.15972324 -63.69151776 519.4400066 -38 497 C-37.32839844 496.47148438 -36.65679688 495.94296875 -35.96484375 495.3984375 C-11.17759379 475.39123376 -1.23785965 440.6381251 2.1796875 410.37329102 C3.794457 393.76718626 4.05186751 376.56763721 2 360 C1.04222656 360.81082031 0.08445312 361.62164063 -0.90234375 362.45703125 C-28.20692145 385.29011549 -59.06802617 400.9377296 -94 408 C-95.20140625 408.2475 -96.4028125 408.495 -97.640625 408.75 C-150.72724823 417.63892296 -204.6017225 397.32833235 -248 368 C-251.49698425 365.48802116 -254.78758284 362.86401162 -258 360 C-258.845625 359.26136719 -259.69125 358.52273438 -260.5625 357.76171875 C-268.27154172 350.93600473 -275.1891047 343.95633151 -281.6328125 335.91796875 C-283.15704029 334.03909391 -284.71246449 332.18489232 -286.3046875 330.36328125 C-298.97600754 315.80164953 -309.1615961 299.11466065 -318 282 C-318.4120166 281.21254395 -318.8240332 280.42508789 -319.24853516 279.61376953 C-345.40047507 229.12836882 -351.09123179 171.80451727 -334.3203125 117.46484375 C-319.57414666 71.72933338 -291.03859701 28.6512045 -253 -1 C-252.25234375 -1.62648438 -251.5046875 -2.25296875 -250.734375 -2.8984375 C-175.25889329 -65.79467225 -81.12093303 -62.9154477 0 0 Z M-190.73046875 71.88671875 C-192.62142527 73.64748894 -194.54505063 75.26567832 -196.5625 76.875 C-221.10434852 97.9190617 -234.65060132 134.14120141 -237.82128906 165.52148438 C-240.73405957 205.91826882 -230.88680772 245.9321125 -204.4765625 277.30371094 C-183.10587685 301.85455814 -155.15584044 318.03169175 -122.37915039 320.59008789 C-91.20411736 322.63184838 -61.47096515 312.7960963 -37.7109375 292.4609375 C-19.0703337 275.53935192 -5.27293198 255.94127206 3 232 C3.22671387 231.34451172 3.45342773 230.68902344 3.68701172 230.01367188 C16.45867691 192.1271333 13.51213006 149.93880013 -3.96044922 114.08251953 C-19.44118044 83.07015756 -45.06670951 58.59278018 -78.10546875 47.21484375 C-83.97007238 45.31846107 -89.92743406 44.03003017 -96 43 C-96.75023438 42.86851562 -97.50046875 42.73703125 -98.2734375 42.6015625 C-131.20404135 37.93323935 -166.53118649 49.21180073 -190.73046875 71.88671875 Z " fill="#3174F1" transform="translate(2179,473)"/>
<path d="M0 0 C0.59474121 0.53302734 1.18948242 1.06605469 1.80224609 1.61523438 C8.59937951 7.74172678 15.24458898 13.86427628 21 21 C21.90995815 22.09782048 22.82013593 23.19545894 23.73046875 24.29296875 C64.68648764 74.10915732 82.48281585 136.60988702 76.27709961 200.64135742 C73.68951032 222.42286931 67.71785687 243.8971438 59 264 C58.62504395 264.8667334 58.25008789 265.7334668 57.86376953 266.62646484 C50.05088347 284.39663176 40.14157283 300.84426049 28 316 C27.24203125 316.96164062 26.4840625 317.92328125 25.703125 318.9140625 C12.38321659 335.2537017 -2.7722851 349.85943095 -20 362 C-21.14736619 362.83952845 -22.29451082 363.67935981 -23.44140625 364.51953125 C-59.74556974 390.47786769 -104.69689594 403.57517655 -149 405 C-150.66095703 405.061875 -150.66095703 405.061875 -152.35546875 405.125 C-198.58968881 406.00880827 -248.56233098 391.49154202 -286 364 C-286.98742188 363.28328125 -287.97484375 362.5665625 -288.9921875 361.828125 C-292.02631326 359.58920269 -295.03899581 357.33431324 -298 355 C-298.80872559 354.36263916 -299.61745117 353.72527832 -300.45068359 353.06860352 C-307.18230646 347.66939249 -313.4190665 341.93134738 -319.5 335.8125 C-320.87019287 334.4371106 -320.87019287 334.4371106 -322.26806641 333.03393555 C-329.11690106 326.07463581 -335.30992008 318.92434984 -341 311 C-341.88365234 309.82630859 -341.88365234 309.82630859 -342.78515625 308.62890625 C-378.192246 260.3312921 -392.71205653 198.6253486 -384.47875977 139.46533203 C-377.30879066 93.99896767 -357.78836904 51.01705195 -326.1875 17.33984375 C-324.2587351 15.27675416 -322.43702534 13.16484758 -320.625 11 C-306.2504789 -5.40425672 -287.61022359 -17.93255643 -269 -29 C-268.37480469 -29.37463379 -267.74960938 -29.74926758 -267.10546875 -30.13525391 C-183.21751021 -79.68216068 -71.30755778 -63.99997119 0 0 Z M-248.1875 77.25 C-274.32278201 107.1618088 -286.12933445 145.79092429 -283.87548828 185.17578125 C-281.06965185 223.82998799 -262.77337344 258.42922812 -234 284 C-208.44369775 305.5745792 -174.78476572 315.1669817 -141.6875 312.4375 C-112.88874629 309.5290166 -87.74765149 296.88746693 -67 277 C-66.19175781 276.25492188 -65.38351562 275.50984375 -64.55078125 274.7421875 C-39.85975861 251.25276879 -25.1420281 215.9753359 -24 182 C-23.9484375 180.79085937 -23.896875 179.58171875 -23.84375 178.3359375 C-22.8021278 142.58935762 -34.44817761 107.04745466 -58 80 C-58.80824219 79.04738281 -59.61648438 78.09476563 -60.44921875 77.11328125 C-81.76835809 52.52158865 -112.65389659 37.60440793 -145 35 C-184.69244721 32.61548412 -220.97874696 48.57516518 -248.1875 77.25 Z " fill="#F6AD01" transform="translate(1722,481)"/>
<path d="M0 0 C44.05257295 39.74263166 74.93516529 96.36148429 78.11192322 156.3840332 C78.17692535 158.56038697 78.21411548 160.73490124 78.23632812 162.91210938 C78.24612198 163.71416306 78.25591583 164.51621674 78.26600647 165.34257507 C78.86238714 226.94049711 60.17625488 285.06536342 17.49414062 330.54882812 C15.36744865 332.83527161 13.32732127 335.16229272 11.31054688 337.54492188 C7.85502818 341.51387849 4.02916508 344.86157303 -0.00195312 348.23242188 C-1.278125 349.34037109 -1.278125 349.34037109 -2.58007812 350.47070312 C-16.27396608 362.20030387 -30.97069085 371.99290869 -47.00195312 380.23242188 C-48.23969482 380.87074951 -48.23969482 380.87074951 -49.50244141 381.52197266 C-103.66849584 409.13583752 -167.41034818 413.56301101 -225.18945312 394.87695312 C-246.24024414 387.79025217 -267.03043081 378.41804966 -285.00195312 365.23242188 C-285.906875 364.58370117 -285.906875 364.58370117 -286.83007812 363.921875 C-296.52051164 356.9687982 -305.45069999 349.53818449 -314.00195312 341.23242188 C-314.86433594 340.40871094 -314.86433594 340.40871094 -315.74414062 339.56835938 C-323.79361816 331.87038741 -331.09353409 323.90354232 -337.72705078 314.95166016 C-338.96466293 313.28270866 -340.22249132 311.63064635 -341.48242188 309.97851562 C-377.05544608 262.57371709 -391.46409842 200.31322161 -383.48486328 141.86010742 C-376.24295628 94.87612585 -356.17592186 52.52027853 -324.04492188 17.52148438 C-322.63299185 15.93947483 -321.27461326 14.30861664 -319.96289062 12.64257812 C-318.22494242 10.50649438 -316.53931428 8.80916807 -314.43945312 7.04492188 C-312.12944142 5.08120077 -309.86881558 3.10597466 -307.66992188 1.01757812 C-239.36050467 -63.72421975 -133.87603721 -73.42282279 0 0 Z M-247.68945312 78.91992188 C-266.21430696 100.57867956 -278.72636173 127.85814318 -282.00195312 156.23242188 C-282.11152344 157.10253906 -282.22109375 157.97265625 -282.33398438 158.86914062 C-286.41718135 196.16233966 -276.09907323 235.60024907 -252.50390625 265.00610352 C-230.56698242 291.3506685 -201.25265615 309.92869132 -166.59960938 313.47851562 C-131.04537772 316.56312933 -98.28777064 306.08209357 -71.00195312 283.23242188 C-69.92107422 282.36423828 -69.92107422 282.36423828 -68.81835938 281.47851562 C-64.35840446 277.83307363 -60.67458248 273.65699043 -57.00195312 269.23242188 C-56.04289062 268.10513672 -56.04289062 268.10513672 -55.06445312 266.95507812 C-30.60810119 237.48326339 -20.35997597 199.38220487 -23.20410156 161.54296875 C-26.13516783 131.65715346 -37.50220653 104.06416401 -57.00195312 81.23242188 C-57.67613281 80.42417969 -58.3503125 79.6159375 -59.04492188 78.78320312 C-72.98483543 62.60884077 -90.99220379 50.59562712 -111.00195312 43.23242188 C-112.00871094 42.85601563 -113.01546875 42.47960937 -114.05273438 42.09179688 C-162.36224587 25.64078153 -213.34853628 42.89928627 -247.68945312 78.91992188 Z " fill="#E63125" transform="translate(1221.001953125,479.767578125)"/>
<path d="M0 0 C2.47054279 2.2261308 4.89758634 4.48458306 7.28613281 6.79833984 C8.39133946 7.86752952 9.50329345 8.9297672 10.62011719 9.98681641 C20.48536114 19.33570487 28.98159812 29.24912808 36.859375 40.3203125 C37.30087891 40.93841797 37.74238281 41.55652344 38.19726562 42.19335938 C52.96357188 63.08394011 64.5310098 86.011881 73.921875 109.7578125 C74.30432373 110.72315918 74.68677246 111.68850586 75.08081055 112.68310547 C76.82963898 117.2179376 78.33097343 121.45088884 78.859375 126.3203125 C71.08495573 130.41891118 63.0622523 133.84699527 54.95596313 137.21893311 C50.76291707 138.96359537 46.57501985 140.72054672 42.38671875 142.4765625 C41.02349739 143.04774307 41.02349739 143.04774307 39.63273621 143.63046265 C28.94791366 148.11275039 18.29365503 152.66656584 7.63729858 157.21600342 C-11.68476854 165.46414645 -31.02939277 173.6539646 -50.41699219 181.74682617 C-63.31860849 187.13291946 -76.20155711 192.56212832 -89.078125 198.0078125 C-103.90029883 204.27490402 -118.7372308 210.50450146 -133.59619141 216.68383789 C-135.05501815 217.29051501 -136.51383973 217.89720455 -137.97265625 218.50390625 C-138.70162109 218.80706253 -139.43058594 219.11021881 -140.18164062 219.42256165 C-148.85177421 223.02980703 -157.51400992 226.65591345 -166.17596436 230.28274536 C-168.92255584 231.43251573 -171.66949562 232.58145047 -174.41650391 233.73022461 C-182.83621694 237.25255443 -191.25080189 240.78609049 -199.65234375 244.3515625 C-201.80572087 245.26316064 -203.95926814 246.17435545 -206.11288452 247.08538818 C-208.09102341 247.92427746 -210.06663919 248.76891591 -212.04223633 249.61376953 C-213.20907959 250.10731934 -214.37592285 250.60086914 -215.578125 251.109375 C-216.58746094 251.53943848 -217.59679688 251.96950195 -218.63671875 252.41259766 C-221.140625 253.3203125 -221.140625 253.3203125 -224.140625 253.3203125 C-210.42470961 282.82102438 -189.53034178 304.48336786 -158.90234375 316.6015625 C-124.80082703 328.04095311 -85.79591915 322.71265309 -53.8984375 307.2890625 C-32.88971579 296.8233939 -13.782821 280.60470451 -3.140625 259.3203125 C-0.00289504 259.93967814 2.14861463 260.98302402 4.78466797 262.77856445 C5.93179512 263.55351257 5.93179512 263.55351257 7.10209656 264.34411621 C7.92692032 264.9098938 8.75174408 265.47567139 9.6015625 266.05859375 C10.90460075 266.94194397 10.90460075 266.94194397 12.23396301 267.84313965 C15.07099494 269.76784499 17.9026062 271.70037411 20.734375 273.6328125 C23.65480735 275.61644863 26.57663882 277.59801219 29.4985199 279.57951355 C31.45825813 280.90876284 33.41753633 282.23869061 35.37635803 283.56929016 C44.06809615 289.47176482 52.79817705 295.31520681 61.546875 301.1328125 C62.82211975 301.98150131 64.09734819 302.83021465 65.37255859 303.67895508 C68.20063041 305.56071365 71.02964336 307.44105053 73.859375 309.3203125 C73.26011671 312.33892117 72.35933383 314.32828324 70.5234375 316.7890625 C70.04140869 317.43697754 69.55937988 318.08489258 69.06274414 318.75244141 C68.54188232 319.43483887 68.02102051 320.11723633 67.484375 320.8203125 C66.94997803 321.52720215 66.41558105 322.2340918 65.86499023 322.96240234 C61.63343392 328.48193199 57.11946587 333.63171005 52.33203125 338.671875 C50.56376554 340.5658468 48.90816227 342.44798874 47.2734375 344.44921875 C45.32312527 346.76876484 43.47924886 348.6958197 41.171875 350.6328125 C38.9741339 352.49682255 36.81336192 354.36380661 34.71875 356.34375 C18.56104629 371.56716472 -1.15937701 382.89859546 -21.140625 392.3203125 C-22.24535156 392.84367187 -23.35007812 393.36703125 -24.48828125 393.90625 C-77.03406825 417.58003723 -139.61126957 418.57375766 -193.40136719 398.39501953 C-220.71144175 387.68031826 -245.21478301 372.89810528 -266.5625 352.74609375 C-268.80781861 350.63345306 -271.0996271 348.62250634 -273.453125 346.6328125 C-277.42208161 343.17729381 -280.76977616 339.3514307 -284.140625 335.3203125 C-285.24857422 334.04414062 -285.24857422 334.04414062 -286.37890625 332.7421875 C-326.79055501 285.56303775 -344.52659642 225.45433395 -340.93847656 163.84960938 C-336.87663838 113.11495132 -315.56734149 64.12209856 -280.68359375 27.07421875 C-278.89658001 25.13897345 -277.20923786 23.21440451 -275.546875 21.1796875 C-273.59957771 18.86569137 -271.75607831 16.94109434 -269.453125 15.0078125 C-267.26863956 13.15443207 -265.11833969 11.29926756 -263.03515625 9.33203125 C-243.10977823 -9.42731776 -218.55093137 -22.91117451 -193.140625 -32.6796875 C-191.99932129 -33.12199707 -191.99932129 -33.12199707 -190.83496094 -33.57324219 C-127.69759524 -57.56378473 -50.85522564 -44.03318317 0 0 Z M-211.2578125 82.03515625 C-229.19871495 101.90215558 -237.38743722 128.32808671 -241.140625 154.3203125 C-241.33785156 155.58875 -241.33785156 155.58875 -241.5390625 156.8828125 C-242.46080295 163.65885043 -242.21343554 170.49740468 -242.140625 177.3203125 C-230.66150087 173.15344814 -219.39749141 168.56364331 -208.16351318 163.77804565 C-203.20696383 161.66680423 -198.24559446 159.5669276 -193.28515625 157.46484375 C-192.27046265 157.03446304 -191.25576904 156.60408234 -190.21032715 156.16065979 C-179.99194718 151.8281298 -169.75576765 147.53859842 -159.515625 143.2578125 C-157.7339614 142.51271133 -155.95230452 141.7675941 -154.1706543 141.02246094 C-150.6083529 139.53275981 -147.04591181 138.04339334 -143.48339844 136.55419922 C-135.42850077 133.18678864 -127.37556165 129.81469958 -119.32244873 126.44302368 C-116.65727443 125.32728257 -113.99198592 124.21181477 -111.32666016 123.09643555 C-103.00363811 119.6132735 -94.68132055 116.12845517 -86.36132812 112.63806152 C-82.47299765 111.00694801 -78.58429074 109.37673301 -74.69555664 107.74658203 C-72.85926904 106.97652079 -71.02316167 106.20602961 -69.18725586 105.43505859 C-58.54273131 100.96512998 -47.87761905 96.56403948 -37.140625 92.3203125 C-38.77194789 87.97655332 -40.97280398 84.5739054 -43.828125 80.9453125 C-44.2809082 80.3680542 -44.73369141 79.7907959 -45.20019531 79.19604492 C-60.12109244 60.39645687 -81.43507924 48.81964193 -105.140625 45.3203125 C-143.87250582 42.98376619 -183.9037121 53.13788867 -211.2578125 82.03515625 Z " fill="#E63125" transform="translate(2830.140625,469.6796875)"/>
<path d="M0 0 C33.66 0 67.32 0 102 0 C102 222.75 102 445.5 102 675 C68.34 675 34.68 675 0 675 C0 452.25 0 229.5 0 0 Z " fill="#249A41" transform="translate(2344,194)"/>
</svg>
